<?xml version="1.0" encoding="UTF-8" standalone="no"?>
<!DOCTYPE svg PUBLIC "-//W3C//DTD SVG 1.1//EN" "http://www.w3.org/Graphics/SVG/1.1/DTD/svg11.dtd">
<!-- Created with Vectornator (http://vectornator.io/) -->
<svg height="100%" stroke-miterlimit="10" style="fill-rule:nonzero;clip-rule:evenodd;stroke-linecap:round;stroke-linejoin:round;" version="1.1" viewBox="0 0 1024 1024" width="100%" xml:space="preserve" xmlns="http://www.w3.org/2000/svg" xmlns:xlink="http://www.w3.org/1999/xlink">
<defs/>
<g id="Layer-1">
<g opacity="1">
<path d="M604.509 319.647L581.575 378.747L425.445 322.293L211.096 912.412C273.725 883.303 347.821 910.648 376.93 972.395L515.418 591.331L653.024 969.748C682.133 907.12 756.229 880.657 818.858 909.766L604.509 319.647Z" fill="#ffffff" fill-rule="nonzero" opacity="1" stroke="none"/>
<path d="M376.93 998.857C366.345 998.857 357.524 992.683 353.113 983.862C330.179 934.465 271.961 913.294 222.564 936.229C212.861 940.639 201.393 938.875 193.455 931.818C185.516 924.762 182.869 913.294 186.398 903.591L401.628 313.472C404.275 307.297 408.685 301.123 415.742 298.476C421.916 295.83 428.973 294.948 436.03 297.594L600.981 357.577C615.094 362.869 622.151 377.865 616.859 391.096L401.628 981.216C398.1 990.919 388.397 997.975 377.812 998.857C377.812 998.857 376.93 998.857 376.93 998.857ZM263.14 874.482C280.782 874.482 298.424 877.129 315.183 883.303C335.471 890.36 353.995 901.827 368.991 916.823L557.759 398.153L441.322 355.812L252.555 874.482C256.083 874.482 259.611 874.482 263.14 874.482Z" fill="#212d40" fill-rule="nonzero" opacity="1" stroke="none"/>
<path d="M653.024 997.093L652.142 997.093C641.557 996.211 631.854 990.036 628.326 979.451L565.697 806.561C560.405 792.448 567.462 777.452 581.575 773.042C595.688 768.631 610.684 774.806 615.094 788.919L660.963 914.177C691.836 884.185 734.177 869.19 777.399 871.836L578.929 328.468C573.636 314.354 580.693 299.359 594.806 294.948C608.92 289.656 623.915 296.712 628.326 310.826L843.556 900.945C847.085 910.648 844.438 922.115 836.5 929.172C828.561 936.229 817.093 937.993 807.39 933.583C757.993 910.648 699.775 931.818 676.841 981.216C673.313 990.919 663.61 997.093 653.024 997.093Z" fill="#212d40" fill-rule="nonzero" opacity="1" stroke="none"/>
<path d="M860.316 327.585L827.679 279.953C824.15 275.542 822.386 270.25 822.386 264.075L820.622 206.739C819.74 173.219 797.687 143.228 765.932 131.761L712.125 112.355C706.832 110.591 702.422 107.063 698.893 102.652L663.61 56.7833C643.321 30.3205 608.038 18.8533 575.4 28.5563L520.711 44.434C515.418 46.1982 509.243 46.1982 503.951 44.434L449.261 28.5563C416.624 18.8533 381.34 30.3205 361.052 56.7833L325.768 102.652C322.24 107.063 317.83 110.591 312.537 112.355L258.729 131.761C226.974 143.228 204.922 173.219 204.04 206.739L202.276 264.075C202.276 269.367 200.511 274.66 196.983 279.953L164.346 327.585C144.94 354.93 144.94 392.86 164.346 420.205L196.983 467.838C200.511 472.249 202.276 477.541 202.276 483.716L204.04 541.052C204.922 574.571 226.974 604.562 258.729 616.03L312.537 635.436C317.83 637.2 322.24 640.728 325.768 645.139L361.052 691.007C376.93 711.295 401.628 722.763 426.327 722.763C434.266 722.763 441.322 721.881 449.261 719.234L503.951 703.357C509.243 701.592 515.418 701.592 520.711 703.357L575.4 719.234C608.038 728.937 643.321 717.47 663.61 691.007L698.893 645.139C702.422 640.728 706.832 637.2 712.125 635.436L765.932 616.03C797.687 604.562 819.74 574.571 820.622 541.052L822.386 483.716C822.386 478.423 824.15 473.131 827.679 467.838L860.316 420.205C878.84 392.86 878.84 355.812 860.316 327.585Z" fill="#d66853" fill-rule="nonzero" opacity="1" stroke="none"/>
<path d="M512.772 215.56C425.445 215.56 353.995 287.009 353.995 374.336C353.995 461.663 425.445 533.113 512.772 533.113C600.099 533.113 671.548 461.663 671.548 374.336C671.548 287.009 600.099 215.56 512.772 215.56Z" fill="#ffffff" fill-rule="nonzero" opacity="1" stroke="none"/>
<path d="M512.772 444.904C497.776 444.904 486.309 433.436 486.309 418.441L486.309 330.232C486.309 315.236 497.776 303.769 512.772 303.769C527.767 303.769 539.235 315.236 539.235 330.232L539.235 418.441C539.235 433.436 527.767 444.904 512.772 444.904Z" fill="#212d40" fill-rule="nonzero" opacity="1" stroke="none"/>
</g>
</g>
</svg>
